Nepomuk-Bold.220411-2224.ufo
<glyph name="comma" format="2">
  <advance width="335"/>
  <unicode hex="002C"/>
  <outline>
    <contour>
      <point x="162" y="37" type="curve" smooth="yes"/>
      <point x="187" y="37"/>
      <point x="198" y="28"/>
      <point x="198" y="1" type="curve" smooth="yes"/>
      <point x="198" y="-67"/>
      <point x="131" y="-124"/>
      <point x="56" y="-142" type="curve"/>
      <point x="64" y="-171" type="line"/>
      <point x="164" y="-152"/>
      <point x="275" y="-88"/>
      <point x="275" y="49" type="curve" smooth="yes"/>
      <point x="275" y="136"/>
      <point x="231" y="179"/>
      <point x="167" y="179" type="curve" smooth="yes"/>
      <point x="110" y="179"/>
      <point x="75" y="144" name="hr01"/>
      <point x="75" y="108" type="curve" smooth="yes"/>
      <point x="75" y="72"/>
      <point x="110" y="37"/>
    </contour>
  </outline>
</glyph>
<glyph name="period" format="2">
  <advance width="302"/>
  <unicode hex="002E"/>
  <outline>
    <contour>
      <point x="65" y="59" type="curve" smooth="yes"/>
      <point x="65" y="20"/>
      <point x="103" y="-12"/>
      <point x="151" y="-12" type="curve" smooth="yes"/>
      <point x="199" y="-12"/>
      <point x="237" y="20"/>
      <point x="237" y="59" type="curve" smooth="yes"/>
      <point x="237" y="98"/>
      <point x="199" y="130"/>
      <point x="151" y="130" type="curve" smooth="yes"/>
      <point x="103" y="130"/>
      <point x="65" y="98"/>
    </contour>
  </outline>
</glyph>
<glyph name="slash" format="2">
  <advance width="354"/>
  <unicode hex="002F"/>
  <outline>
    <contour>
      <point x="312" y="754" type="line"/>
      <point x="-35" y="-123" type="line"/>
      <point x="42" y="-123" type="line"/>
      <point x="389" y="754" type="line"/>
    </contour>
  </outline>
</glyph>
<glyph name="seven" format="2">
  <advance width="519"/>
  <unicode hex="0037"/>
  <outline>
    <contour>
      <point x="411" y="528" type="curve"/>
      <point x="408" y="528"/>
      <point x="406" y="524"/>
      <point x="405" y="513" type="curve"/>
      <point x="405" y="510"/>
      <point x="405" y="507"/>
      <point x="404" y="505" type="curve" smooth="yes"/>
      <point x="375" y="425"/>
      <point x="327" y="355"/>
      <point x="278" y="286" type="curve" smooth="yes"/>
      <point x="211" y="193"/>
      <point x="149" y="105"/>
      <point x="126" y="-1" type="curve"/>
      <point x="310" y="-1" type="line"/>
      <point x="310" y="126"/>
      <point x="356" y="226"/>
      <point x="404" y="330" type="curve" smooth="yes"/>
      <point x="453" y="435"/>
      <point x="504" y="544"/>
      <point x="504" y="692" type="curve"/>
      <point x="438" y="692" type="line"/>
      <point x="431" y="657"/>
      <point x="422" y="618" name="hr01"/>
      <point x="375" y="618" type="curve" smooth="yes"/>
      <point x="348" y="618"/>
      <point x="324" y="631"/>
      <point x="298" y="645" type="curve" smooth="yes"/>
      <point x="267" y="662"/>
      <point x="233" y="680"/>
      <point x="186" y="680" type="curve" smooth="yes"/>
      <point x="147" y="680"/>
      <point x="115" y="667"/>
      <point x="90" y="633" type="curve"/>
      <point x="99" y="632"/>
      <point x="101" y="648"/>
      <point x="101" y="661" type="curve" smooth="yes"/>
      <point x="100" y="684" type="line" smooth="yes"/>
      <point x="100" y="692" type="line" name="hr02"/>
      <point x="35" y="692" type="line"/>
      <point x="35" y="462" type="line"/>
      <point x="100" y="462" type="line"/>
      <point x="107" y="543"/>
      <point x="129" y="584" name="hr03"/>
      <point x="166" y="584" type="curve" smooth="yes"/>
      <point x="188" y="584"/>
      <point x="210" y="570"/>
      <point x="239" y="553" type="curve" smooth="yes"/>
      <point x="267" y="537"/>
      <point x="300" y="514"/>
      <point x="342" y="514" type="curve" smooth="yes"/>
      <point x="360" y="514"/>
      <point x="378" y="518"/>
      <point x="392" y="523" type="curve" smooth="yes"/>
      <point x="400" y="526"/>
      <point x="405" y="527"/>
    </contour>
  </outline>
</glyph>
<glyph name="colon" format="2">
  <advance width="302"/>
  <unicode hex="003A"/>
  <outline>
    <contour>
      <point x="65" y="390" type="curve" smooth="yes"/>
      <point x="65" y="351"/>
      <point x="103" y="319"/>
      <point x="151" y="319" type="curve" smooth="yes"/>
      <point x="199" y="319"/>
      <point x="237" y="351"/>
      <point x="237" y="390" type="curve" smooth="yes"/>
      <point x="237" y="429"/>
      <point x="199" y="461"/>
      <point x="151" y="461" type="curve" smooth="yes"/>
      <point x="103" y="461"/>
      <point x="65" y="429"/>
    </contour>
    <contour>
      <point x="65" y="59" type="curve" smooth="yes"/>
      <point x="65" y="20"/>
      <point x="103" y="-12"/>
      <point x="151" y="-12" type="curve" smooth="yes"/>
      <point x="199" y="-12"/>
      <point x="237" y="20"/>
      <point x="237" y="59" type="curve" smooth="yes"/>
      <point x="237" y="98"/>
      <point x="199" y="130"/>
      <point x="151" y="130" type="curve" smooth="yes"/>
      <point x="103" y="130"/>
      <point x="65" y="98"/>
    </contour>
  </outline>
</glyph>
<glyph name="less" format="2">
  <advance width="963"/>
  <unicode hex="003C"/>
  <outline>
    <contour>
      <point x="842" y="-160" type="line"/>
      <point x="86" y="258" type="line"/>
      <point x="86" y="299" type="line"/>
      <point x="842" y="717" type="line"/>
      <point x="874" y="659" type="line"/>
      <point x="184" y="279" type="line"/>
      <point x="874" y="-102" type="line"/>
    </contour>
  </outline>
</glyph>
<glyph name="B" format="2">
  <advance width="648"/>
  <unicode hex="0042"/>
  <outline>
    <contour>
      <point x="460" y="363" type="curve"/>
      <point x="449" y="366" type="line"/>
      <point x="449" y="370" type="line"/>
      <point x="531" y="395"/>
      <point x="581" y="453"/>
      <point x="581" y="514" type="curve" smooth="yes"/>
      <point x="581" y="619"/>
      <point x="495" y="680"/>
      <point x="331" y="680" type="curve" smooth="yes"/>
      <point x="53" y="680" type="line"/>
      <point x="53" y="645" type="line"/>
      <point x="98" y="645" type="line" smooth="yes"/>
      <point x="129" y="645"/>
      <point x="133" y="640"/>
      <point x="133" y="595" type="curve" smooth="yes"/>
      <point x="133" y="85" type="line" smooth="yes"/>
      <point x="133" y="40"/>
      <point x="129" y="35"/>
      <point x="98" y="35" type="curve" smooth="yes"/>
      <point x="53" y="35" type="line"/>
      <point x="53" y="0" type="line"/>
      <point x="341" y="0" type="line" smooth="yes"/>
      <point x="514" y="0"/>
      <point x="625" y="65" name="hr01"/>
      <point x="625" y="184" type="curve" smooth="yes"/>
      <point x="625" y="275"/>
      <point x="560" y="341"/>
    </contour>
    <contour>
      <point x="321" y="384" type="curve" smooth="yes"/>
      <point x="260" y="384" type="line"/>
      <point x="260" y="604" type="line" smooth="yes"/>
      <point x="260" y="636"/>
      <point x="298" y="644"/>
      <point x="314" y="644" type="curve" smooth="yes"/>
      <point x="321" y="644" type="line" smooth="yes"/>
      <point x="393" y="644"/>
      <point x="443" y="609"/>
      <point x="443" y="514" type="curve" smooth="yes"/>
      <point x="443" y="419"/>
      <point x="393" y="384"/>
    </contour>
    <contour>
      <point x="319" y="36" type="line" smooth="yes"/>
      <point x="302" y="36"/>
      <point x="260" y="44"/>
      <point x="260" y="76" type="curve" smooth="yes"/>
      <point x="260" y="348" type="line"/>
      <point x="244" y="348" type="line"/>
      <point x="331" y="348" type="line" smooth="yes"/>
      <point x="423" y="348"/>
      <point x="484" y="300"/>
      <point x="484" y="190" type="curve" smooth="yes"/>
      <point x="484" y="80" name="hr03"/>
      <point x="423" y="36"/>
      <point x="331" y="36" type="curve" smooth="yes"/>
    </contour>
  </outline>
</glyph>
<glyph name="D" format="2">
  <advance width="688"/>
  <unicode hex="0044"/>
  <outline>
    <contour>
      <point x="48" y="680" type="line"/>
      <point x="48" y="645" type="line"/>
      <point x="94" y="645" type="line" smooth="yes"/>
      <point x="125" y="645"/>
      <point x="129" y="640"/>
      <point x="129" y="595" type="curve" smooth="yes"/>
      <point x="129" y="85" type="line" smooth="yes"/>
      <point x="129" y="40"/>
      <point x="125" y="35"/>
      <point x="94" y="35" type="curve" smooth="yes"/>
      <point x="48" y="35" type="line"/>
      <point x="48" y="0" type="line"/>
      <point x="327" y="0" type="line" smooth="yes"/>
      <point x="556" y="0"/>
      <point x="654" y="160"/>
      <point x="654" y="340" type="curve" smooth="yes"/>
      <point x="654" y="520"/>
      <point x="556" y="680"/>
      <point x="327" y="680" type="curve" smooth="yes"/>
    </contour>
    <contour>
      <point x="317" y="36" type="curve" smooth="yes"/>
      <point x="310" y="36" type="line" smooth="yes"/>
      <point x="294" y="36"/>
      <point x="256" y="44"/>
      <point x="256" y="76" type="curve" smooth="yes"/>
      <point x="256" y="604" type="line" smooth="yes"/>
      <point x="256" y="636"/>
      <point x="294" y="644"/>
      <point x="310" y="644" type="curve" smooth="yes"/>
      <point x="317" y="644" type="line" smooth="yes"/>
      <point x="448" y="644"/>
      <point x="508" y="560"/>
      <point x="508" y="340" type="curve" smooth="yes"/>
      <point x="508" y="120"/>
      <point x="448" y="36"/>
    </contour>
  </outline>
</glyph>
<glyph name="F" format="2">
  <advance width="627"/>
  <unicode hex="0046"/>
  <outline>
    <contour>
      <point x="370" y="644" type="line" smooth="yes"/>
      <point x="489" y="644"/>
      <point x="525" y="576"/>
      <point x="542" y="449" type="curve" name="hr01"/>
      <point x="601" y="449" type="line"/>
      <point x="601" y="680" type="line"/>
      <point x="48" y="680" type="line"/>
      <point x="48" y="645" type="line"/>
      <point x="94" y="645" type="line" smooth="yes"/>
      <point x="125" y="645"/>
      <point x="129" y="640"/>
      <point x="129" y="595" type="curve" smooth="yes"/>
      <point x="129" y="85" type="line" smooth="yes"/>
      <point x="129" y="40"/>
      <point x="125" y="35"/>
      <point x="94" y="35" type="curve" smooth="yes"/>
      <point x="48" y="35" type="line"/>
      <point x="48" y="0" type="line"/>
      <point x="367" y="0" type="line"/>
      <point x="367" y="35" type="line"/>
      <point x="291" y="35" type="line" smooth="yes"/>
      <point x="260" y="35"/>
      <point x="256" y="40"/>
      <point x="256" y="85" type="curve" smooth="yes"/>
      <point x="256" y="326" type="line"/>
      <point x="240" y="326" type="line"/>
      <point x="314" y="326" type="line" smooth="yes"/>
      <point x="361" y="326"/>
      <point x="391" y="270"/>
      <point x="399" y="180" type="curve"/>
      <point x="455" y="180" type="line"/>
      <point x="455" y="507" type="line"/>
      <point x="399" y="507" type="line"/>
      <point x="391" y="417"/>
      <point x="364" y="362"/>
      <point x="314" y="362" type="curve" smooth="yes"/>
      <point x="256" y="362" type="line"/>
      <point x="256" y="604" type="line" smooth="yes"/>
      <point x="256" y="628"/>
      <point x="283" y="644" name="hr02"/>
      <point x="306" y="644" type="curve" smooth="yes"/>
    </contour>
  </outline>
</glyph>
<glyph name="L" format="2">
  <advance width="607"/>
  <unicode hex="004C"/>
  <outline>
    <contour>
      <point x="48" y="0" type="line"/>
      <point x="581" y="0" type="line"/>
      <point x="581" y="270" type="line"/>
      <point x="522" y="270" type="line"/>
      <point x="489" y="90"/>
      <point x="444" y="36"/>
      <point x="329" y="36" type="curve" smooth="yes"/>
      <point x="300" y="36" type="line" smooth="yes"/>
      <point x="279" y="36"/>
      <point x="256" y="53"/>
      <point x="256" y="84" type="curve" smooth="yes"/>
      <point x="256" y="595" type="line" smooth="yes"/>
      <point x="256" y="640"/>
      <point x="260" y="645"/>
      <point x="291" y="645" type="curve" smooth="yes"/>
      <point x="346" y="645" type="line"/>
      <point x="346" y="680" type="line"/>
      <point x="59" y="680" type="line"/>
      <point x="59" y="645" type="line"/>
      <point x="94" y="645" type="line" smooth="yes"/>
      <point x="125" y="645"/>
      <point x="129" y="640"/>
      <point x="129" y="595" type="curve" smooth="yes"/>
      <point x="129" y="85" type="line" smooth="yes"/>
      <point x="129" y="40"/>
      <point x="125" y="35"/>
      <point x="94" y="35" type="curve" smooth="yes"/>
      <point x="48" y="35" type="line"/>
    </contour>
  </outline>
</glyph>
<glyph name="M" format="2">
  <advance width="818"/>
  <unicode hex="004D"/>
  <outline>
    <contour>
      <point x="203.92" y="589" type="curve"/>
      <point x="365.52" y="15" type="line"/>
      <point x="417.03" y="15" type="line"/>
      <point x="576.61" y="527" type="line"/>
      <point x="576.61" y="528" type="line"/>
      <point x="576.61" y="85" type="line" smooth="yes"/>
      <point x="576.61" y="41"/>
      <point x="564.49" y="34"/>
      <point x="536.21" y="34" type="curve" smooth="yes"/>
      <point x="485.71" y="34" type="line"/>
      <point x="485.71" y="0" type="line"/>
      <point x="783.66" y="0" type="line"/>
      <point x="783.66" y="35" type="line"/>
      <point x="764.47" y="34" type="line" smooth="yes"/>
      <point x="748.31" y="34" type="line" smooth="yes"/>
      <point x="720.03" y="34"/>
      <point x="702.86" y="37"/>
      <point x="702.86" y="56" type="curve" smooth="yes"/>
      <point x="702.86" y="624" type="line" smooth="yes"/>
      <point x="702.86" y="643"/>
      <point x="719.02" y="647"/>
      <point x="738.21" y="647" type="curve" smooth="yes"/>
      <point x="767.5" y="645" type="line" smooth="yes"/>
      <point x="773.56" y="645" type="line"/>
      <point x="773.56" y="680" type="line"/>
      <point x="567.52" y="680" type="line"/>
      <point x="437.23" y="264" type="line"/>
      <point x="304.92" y="680" type="line"/>
      <point x="53.43" y="680" type="line"/>
      <point x="53.43" y="645" type="line"/>
      <point x="127.16" y="645"/>
      <point x="134.23" y="638"/>
      <point x="134.23" y="568" type="curve" smooth="yes"/>
      <point x="134.23" y="85" type="line" smooth="yes"/>
      <point x="134.23" y="42"/>
      <point x="123.12" y="33"/>
      <point x="99.89" y="33" type="curve" smooth="yes"/>
      <point x="95.85" y="33" type="line" smooth="yes"/>
      <point x="76.66" y="34" type="line" smooth="yes"/>
      <point x="43.33" y="34" type="line"/>
      <point x="43.33" y="0" type="line"/>
      <point x="307.95" y="0" type="line"/>
      <point x="307.95" y="35" type="line"/>
      <point x="242.3" y="35" type="line" smooth="yes"/>
      <point x="208.97" y="35"/>
      <point x="206.95" y="47"/>
      <point x="206.95" y="72" type="curve" smooth="yes"/>
      <point x="206.95" y="549" type="line" smooth="yes"/>
      <point x="206.95" y="562"/>
      <point x="206.95" y="576"/>
    </contour>
  </outline>
</glyph>
<glyph name="O" format="2">
  <advance width="683"/>
  <unicode hex="004F"/>
  <anchor x="349" y="730" name="t.asciicircum_1"/>
  <anchor x="349" y="750" name="t.dieresis"/>
  <outline>
    <contour>
      <point x="196.95" y="340" type="curve" smooth="yes"/>
      <point x="196.95" y="590"/>
      <point x="267.65" y="660"/>
      <point x="349.46" y="660" type="curve" smooth="yes"/>
      <point x="431.27" y="660"/>
      <point x="500.96" y="590"/>
      <point x="500.96" y="340" type="curve" smooth="yes"/>
      <point x="500.96" y="90"/>
      <point x="431.27" y="20"/>
      <point x="349.46" y="20" type="curve" smooth="yes"/>
      <point x="267.65" y="20"/>
      <point x="196.95" y="90"/>
    </contour>
    <contour>
      <point x="48.48" y="340" type="curve" smooth="yes"/>
      <point x="48.48" y="146"/>
      <point x="157.56" y="-12"/>
      <point x="349.46" y="-12" type="curve" smooth="yes"/>
      <point x="541.36" y="-12"/>
      <point x="649.43" y="146"/>
      <point x="649.43" y="340" type="curve" smooth="yes"/>
      <point x="649.43" y="535"/>
      <point x="541.36" y="692"/>
      <point x="349.46" y="692" type="curve" smooth="yes"/>
      <point x="157.56" y="692"/>
      <point x="48.48" y="535"/>
    </contour>
  </outline>
</glyph>
<glyph name="Q" format="2">
  <advance width="683"/>
  <unicode hex="0051"/>
  <outline>
    <contour>
      <point x="108" y="-133" type="line"/>
      <point x="146" y="-66"/>
      <point x="179" y="-37"/>
      <point x="206" y="-37" type="curve" smooth="yes"/>
      <point x="228" y="-37"/>
      <point x="256" y="-55"/>
      <point x="289" y="-89" type="curve" smooth="yes"/>
      <point x="339" y="-142"/>
      <point x="403" y="-182"/>
      <point x="471" y="-182" type="curve" smooth="yes"/>
      <point x="538" y="-182"/>
      <point x="601" y="-142"/>
      <point x="642" y="-38" type="curve"/>
      <point x="604" y="-12" type="line"/>
      <point x="560" y="-76"/>
      <point x="526" y="-102"/>
      <point x="498" y="-102" type="curve" smooth="yes"/>
      <point x="463" y="-102"/>
      <point x="416" y="-63"/>
      <point x="359" y="-12" type="curve"/>
      <point x="349" y="-12" type="line"/>
      <point x="541" y="-12"/>
      <point x="649" y="146"/>
      <point x="649" y="340" type="curve" smooth="yes"/>
      <point x="649" y="535"/>
      <point x="541" y="692"/>
      <point x="349" y="692" type="curve" smooth="yes"/>
      <point x="159" y="692"/>
      <point x="48" y="535"/>
      <point x="48" y="342" type="curve" smooth="yes"/>
      <point x="48" y="207"/>
      <point x="102" y="89"/>
      <point x="199" y="27" type="curve"/>
      <point x="205" y="27" type="line"/>
      <point x="134" y="8"/>
      <point x="97" y="-52"/>
      <point x="66" y="-112" type="curve"/>
    </contour>
    <contour>
      <point x="197" y="340" type="curve" smooth="yes"/>
      <point x="197" y="590"/>
      <point x="268" y="660"/>
      <point x="349" y="660" type="curve" smooth="yes"/>
      <point x="431" y="660"/>
      <point x="500" y="590"/>
      <point x="500" y="340" type="curve" smooth="yes"/>
      <point x="500" y="90"/>
      <point x="431" y="20"/>
      <point x="349" y="20" type="curve" smooth="yes"/>
      <point x="268" y="20"/>
      <point x="197" y="90"/>
    </contour>
  </outline>
</glyph>
<glyph name="R" format="2">
  <advance width="736"/>
  <unicode hex="0052"/>
  <outline>
    <contour>
      <point x="265.48" y="85" type="curve" smooth="yes"/>
      <point x="265.48" y="348" type="line"/>
      <point x="331.13" y="348" type="line" smooth="yes"/>
      <point x="400.82" y="348"/>
      <point x="435.16" y="262"/>
      <point x="439.2" y="176" type="curve" smooth="yes"/>
      <point x="445.26" y="52"/>
      <point x="483.64" y="-12"/>
      <point x="580.6" y="-12" type="curve" smooth="yes"/>
      <point x="672.51" y="-12"/>
      <point x="717.96" y="46"/>
      <point x="717.96" y="132" type="curve" smooth="yes"/>
      <point x="717.96" y="145"/>
      <point x="716.95" y="158"/>
      <point x="714.93" y="172" type="curve" name="hr01"/>
      <point x="654.33" y="172" type="line"/>
      <point x="654.33" y="114"/>
      <point x="646.25" y="54" name="hr02"/>
      <point x="623.02" y="54" type="curve" smooth="yes"/>
      <point x="595.75" y="54"/>
      <point x="584.64" y="127"/>
      <point x="579.59" y="172" type="curve" smooth="yes"/>
      <point x="570.5" y="252"/>
      <point x="515.96" y="334"/>
      <point x="436.17" y="357" type="curve"/>
      <point x="436.17" y="365" type="line"/>
      <point x="536.16" y="379"/>
      <point x="590.7" y="441"/>
      <point x="590.7" y="520" type="curve" smooth="yes"/>
      <point x="590.7" y="619"/>
      <point x="503.84" y="680"/>
      <point x="337.19" y="680" type="curve" smooth="yes"/>
      <point x="48.33" y="680" type="line"/>
      <point x="48.33" y="645" type="line"/>
      <point x="103.88" y="645" type="line" smooth="yes"/>
      <point x="135.19" y="645"/>
      <point x="139.23" y="640"/>
      <point x="139.23" y="595" type="curve" smooth="yes"/>
      <point x="139.23" y="85" type="line" smooth="yes"/>
      <point x="139.23" y="40"/>
      <point x="135.19" y="35" name="hr04"/>
      <point x="103.88" y="35" type="curve" smooth="yes"/>
      <point x="48.33" y="35" type="line"/>
      <point x="48.33" y="0" type="line"/>
      <point x="366.48" y="0" type="line"/>
      <point x="366.48" y="35" type="line"/>
      <point x="300.83" y="35" type="line" smooth="yes"/>
      <point x="269.52" y="35"/>
      <point x="265.48" y="40"/>
    </contour>
    <contour>
      <point x="327.09" y="384" type="curve" smooth="yes"/>
      <point x="265.48" y="384" type="line"/>
      <point x="265.48" y="604" type="line" smooth="yes"/>
      <point x="265.48" y="636"/>
      <point x="303.86" y="644"/>
      <point x="320.02" y="644" type="curve" smooth="yes"/>
      <point x="327.09" y="644" type="line" smooth="yes"/>
      <point x="398.8" y="644"/>
      <point x="454.35" y="609"/>
      <point x="454.35" y="514" type="curve" smooth="yes"/>
      <point x="454.35" y="419"/>
      <point x="398.8" y="384"/>
    </contour>
  </outline>
</glyph>
<glyph name="U" format="2">
  <advance width="726"/>
  <unicode hex="0055"/>
  <anchor x="395" y="730" name="t.asciicircum_1"/>
  <anchor x="395" y="750" name="t.dieresis"/>
  <outline>
    <contour>
      <point x="601" y="595" type="line" smooth="yes"/>
      <point x="601" y="640"/>
      <point x="605" y="645"/>
      <point x="636" y="645" type="curve" smooth="yes"/>
      <point x="702" y="645" type="line"/>
      <point x="702" y="680" type="line"/>
      <point x="438" y="680" type="line"/>
      <point x="438" y="645" type="line"/>
      <point x="504" y="645" type="line" smooth="yes"/>
      <point x="525" y="645"/>
      <point x="525" y="640"/>
      <point x="525" y="595" type="curve" smooth="yes"/>
      <point x="525" y="274" type="line" smooth="yes"/>
      <point x="525" y="154"/>
      <point x="513" y="31"/>
      <point x="392" y="31" type="curve" smooth="yes"/>
      <point x="285" y="31"/>
      <point x="266" y="128"/>
      <point x="266" y="288" type="curve" smooth="yes"/>
      <point x="266" y="595" type="line" smooth="yes"/>
      <point x="266" y="640"/>
      <point x="270" y="645"/>
      <point x="301" y="645" type="curve" smooth="yes"/>
      <point x="357" y="645" type="line"/>
      <point x="357" y="680" type="line"/>
      <point x="48" y="680" type="line"/>
      <point x="48" y="645" type="line"/>
      <point x="94" y="645" type="line" smooth="yes"/>
      <point x="125" y="645"/>
      <point x="129" y="640"/>
      <point x="129" y="595" type="curve" smooth="yes"/>
      <point x="129" y="269" type="line" smooth="yes"/>
      <point x="129" y="69"/>
      <point x="215" y="-12"/>
      <point x="352" y="-12" type="curve" smooth="yes"/>
      <point x="525" y="-12"/>
      <point x="601" y="118"/>
      <point x="601" y="257" type="curve" smooth="yes"/>
    </contour>
  </outline>
</glyph>
<glyph name="bracketright" format="2">
  <advance width="288"/>
  <unicode hex="005D"/>
  <outline>
    <contour>
      <point x="168" y="-95" type="line" smooth="yes"/>
      <point x="168" y="-130"/>
      <point x="157" y="-144"/>
      <point x="133" y="-144" type="curve" smooth="yes"/>
      <point x="25" y="-144" type="line"/>
      <point x="25" y="-179" type="line"/>
      <point x="268" y="-179" type="line"/>
      <point x="268" y="740" type="line"/>
      <point x="25" y="740" type="line"/>
      <point x="25" y="705" type="line"/>
      <point x="133" y="705" type="line" smooth="yes"/>
      <point x="157" y="705"/>
      <point x="168" y="691" name="hr02"/>
      <point x="168" y="656" type="curve" smooth="yes"/>
    </contour>
  </outline>
</glyph>
<glyph name="b" format="2">
  <advance width="523"/>
  <unicode hex="0062"/>
  <anchor x="262" y="530" name="t.asciicircum_1"/>
  <anchor x="262" y="530" name="t.dieresis"/>
  <outline>
    <contour>
      <point x="169" y="85" type="line"/>
      <point x="155" y="85" type="line"/>
      <point x="162" y="85" type="line"/>
      <point x="148" y="85" type="line"/>
      <point x="176" y="27"/>
      <point x="213" y="-12"/>
      <point x="286" y="-12" type="curve" smooth="yes"/>
      <point x="395" y="-12"/>
      <point x="482" y="75"/>
      <point x="482" y="227" type="curve" smooth="yes"/>
      <point x="482" y="375"/>
      <point x="400" y="462"/>
      <point x="303" y="462" type="curve" smooth="yes"/>
      <point x="245" y="462"/>
      <point x="190" y="431"/>
      <point x="159" y="368" type="curve"/>
      <point x="173" y="368" type="line"/>
      <point x="165" y="368" type="line"/>
      <point x="180" y="368" type="line"/>
      <point x="180" y="680" type="line"/>
      <point x="-15" y="680" type="line"/>
      <point x="-15" y="645" type="line"/>
      <point x="30" y="645" type="line" smooth="yes"/>
      <point x="61" y="645"/>
      <point x="65" y="640"/>
      <point x="65" y="595" type="curve" smooth="yes"/>
      <point x="65" y="-12" type="line"/>
      <point x="119" y="-12" type="line"/>
    </contour>
    <contour>
      <point x="349" y="233" type="curve" smooth="yes"/>
      <point x="349" y="90"/>
      <point x="316" y="19"/>
      <point x="273" y="19" type="curve" smooth="yes"/>
      <point x="233" y="19"/>
      <point x="185" y="79" name="hr01"/>
      <point x="185" y="225" type="curve" smooth="yes"/>
      <point x="185" y="329"/>
      <point x="228" y="429"/>
      <point x="280" y="429" type="curve" smooth="yes"/>
      <point x="323" y="429"/>
      <point x="349" y="360"/>
    </contour>
  </outline>
</glyph>
<glyph name="d" format="2">
  <advance width="542"/>
  <unicode hex="0064"/>
  <outline>
    <contour>
      <point x="175" y="217" type="curve" smooth="yes"/>
      <point x="175" y="360"/>
      <point x="208" y="431"/>
      <point x="251" y="431" type="curve" smooth="yes"/>
      <point x="291" y="431"/>
      <point x="339" y="371"/>
      <point x="339" y="225" type="curve" smooth="yes"/>
      <point x="339" y="121"/>
      <point x="296" y="21"/>
      <point x="244" y="21" type="curve" smooth="yes"/>
      <point x="201" y="21"/>
      <point x="175" y="90"/>
    </contour>
    <contour>
      <point x="344" y="386" type="line"/>
      <point x="359" y="386" type="line" name="hr01"/>
      <point x="351" y="386" type="line"/>
      <point x="364" y="386" type="line"/>
      <point x="338" y="432"/>
      <point x="301" y="462"/>
      <point x="237" y="462" type="curve" smooth="yes"/>
      <point x="129" y="462"/>
      <point x="42" y="375"/>
      <point x="42" y="223" type="curve" smooth="yes"/>
      <point x="42" y="75"/>
      <point x="124" y="-12"/>
      <point x="221" y="-12" type="curve" smooth="yes"/>
      <point x="280" y="-12"/>
      <point x="336" y="20"/>
      <point x="367" y="86" type="curve"/>
      <point x="353" y="86" type="line"/>
      <point x="354" y="86" type="line"/>
      <point x="349" y="86" type="line"/>
      <point x="349" y="0" type="line" name="hr02"/>
      <point x="529" y="0" type="line"/>
      <point x="529" y="35" type="line"/>
      <point x="494" y="35" type="line" smooth="yes"/>
      <point x="463" y="35"/>
      <point x="459" y="44"/>
      <point x="459" y="89" type="curve" smooth="yes"/>
      <point x="459" y="680" type="line"/>
      <point x="264" y="680" type="line"/>
      <point x="264" y="645" type="line"/>
      <point x="309" y="645" type="line" smooth="yes"/>
      <point x="340" y="645"/>
      <point x="344" y="640"/>
      <point x="344" y="595" type="curve" smooth="yes"/>
    </contour>
  </outline>
</glyph>
<glyph name="q" format="2">
  <advance width="533"/>
  <unicode hex="0071"/>
  <outline>
    <contour>
      <point x="359" y="82" type="line"/>
      <point x="344" y="82" type="line"/>
      <point x="344" y="-145" type="line" smooth="yes"/>
      <point x="344" y="-190"/>
      <point x="340" y="-195"/>
      <point x="309" y="-195" type="curve" smooth="yes"/>
      <point x="244" y="-195" type="line"/>
      <point x="244" y="-230" type="line"/>
      <point x="539" y="-230" type="line"/>
      <point x="539" y="-195" type="line"/>
      <point x="494" y="-195" type="line" smooth="yes"/>
      <point x="463" y="-195"/>
      <point x="459" y="-190"/>
      <point x="459" y="-145" type="curve" smooth="yes"/>
      <point x="459" y="462" type="line"/>
      <point x="405" y="462" type="line"/>
      <point x="355" y="365" type="line"/>
      <point x="369" y="365" type="line"/>
      <point x="362" y="365" type="line"/>
      <point x="376" y="365" type="line"/>
      <point x="348" y="423"/>
      <point x="311" y="462"/>
      <point x="238" y="462" type="curve" smooth="yes"/>
      <point x="129" y="462"/>
      <point x="42" y="375"/>
      <point x="42" y="223" type="curve" smooth="yes"/>
      <point x="42" y="75"/>
      <point x="124" y="-12"/>
      <point x="221" y="-12" type="curve" smooth="yes"/>
      <point x="279" y="-12"/>
      <point x="334" y="19"/>
      <point x="365" y="82" type="curve"/>
      <point x="351" y="82" type="line"/>
    </contour>
    <contour>
      <point x="175" y="217" type="curve" smooth="yes"/>
      <point x="175" y="360"/>
      <point x="208" y="431"/>
      <point x="251" y="431" type="curve" smooth="yes"/>
      <point x="291" y="431"/>
      <point x="339" y="371" name="hr01"/>
      <point x="339" y="225" type="curve" smooth="yes"/>
      <point x="339" y="121"/>
      <point x="296" y="21"/>
      <point x="244" y="21" type="curve" smooth="yes"/>
      <point x="201" y="21"/>
      <point x="175" y="90"/>
    </contour>
  </outline>
</glyph>
<glyph name="u" format="2">
  <advance width="582"/>
  <unicode hex="0075"/>
  <outline>
    <contour>
      <point x="396" y="96" type="curve"/>
      <point x="381" y="96" type="line"/>
      <point x="390" y="96" type="line"/>
      <point x="375" y="96" type="line"/>
      <point x="375" y="0" type="line"/>
      <point x="555" y="0" type="line"/>
      <point x="555" y="35" type="line"/>
      <point x="520" y="35" type="line" smooth="yes"/>
      <point x="489" y="35"/>
      <point x="485" y="42"/>
      <point x="485" y="87" type="curve" smooth="yes"/>
      <point x="485" y="450" type="line"/>
      <point x="289" y="450" type="line"/>
      <point x="289" y="415" type="line"/>
      <point x="334" y="415" type="line" smooth="yes"/>
      <point x="365" y="415"/>
      <point x="369" y="410" name="hr01"/>
      <point x="369" y="365" type="curve" smooth="yes"/>
      <point x="369" y="214" type="line" smooth="yes"/>
      <point x="369" y="154"/>
      <point x="336" y="32"/>
      <point x="260" y="32" type="curve" smooth="yes"/>
      <point x="219" y="32"/>
      <point x="203" y="68"/>
      <point x="203" y="175" type="curve" smooth="yes"/>
      <point x="203" y="450" type="line"/>
      <point x="13" y="450" type="line"/>
      <point x="13" y="415" type="line"/>
      <point x="48" y="415" type="line" smooth="yes"/>
      <point x="79" y="415"/>
      <point x="83" y="412"/>
      <point x="83" y="367" type="curve" smooth="yes"/>
      <point x="83" y="171" type="line" smooth="yes"/>
      <point x="83" y="67"/>
      <point x="116" y="-12"/>
      <point x="230" y="-12" type="curve" smooth="yes"/>
      <point x="318" y="-12"/>
      <point x="371" y="36"/>
    </contour>
  </outline>
</glyph>
<glyph name="x" format="2">
  <advance width="546"/>
  <unicode hex="0078"/>
  <outline>
    <contour>
      <point x="271" y="450" type="line"/>
      <point x="28" y="450" type="line"/>
      <point x="28" y="415" type="line"/>
      <point x="54" y="415" type="line" smooth="yes"/>
      <point x="93" y="415"/>
      <point x="95" y="413"/>
      <point x="112" y="386" type="curve" smooth="yes"/>
      <point x="227" y="217" type="line"/>
      <point x="228" y="217" type="line"/>
      <point x="123" y="82" type="line" smooth="yes"/>
      <point x="90" y="39"/>
      <point x="83" y="35"/>
      <point x="28" y="35" type="curve" smooth="yes"/>
      <point x="5" y="35" type="line"/>
      <point x="5" y="0" type="line"/>
      <point x="229" y="0" type="line"/>
      <point x="229" y="35" type="line"/>
      <point x="183" y="35" type="line" smooth="yes"/>
      <point x="175" y="35"/>
      <point x="171" y="38"/>
      <point x="171" y="47" type="curve" smooth="yes"/>
      <point x="171" y="58"/>
      <point x="177" y="70"/>
      <point x="188" y="85" type="curve" smooth="yes"/>
      <point x="254" y="169" type="line"/>
      <point x="321" y="72" type="line" smooth="yes"/>
      <point x="327" y="63"/>
      <point x="331" y="55"/>
      <point x="331" y="47" type="curve" smooth="yes"/>
      <point x="331" y="38"/>
      <point x="326" y="35"/>
      <point x="316" y="35" type="curve" smooth="yes"/>
      <point x="294" y="35" type="line"/>
      <point x="294" y="0" type="line"/>
      <point x="546" y="0" type="line"/>
      <point x="546" y="35" type="line"/>
      <point x="520" y="35" type="line" smooth="yes"/>
      <point x="480" y="35"/>
      <point x="476" y="39"/>
      <point x="452" y="74" type="curve" smooth="yes"/>
      <point x="329" y="255" type="line"/>
      <point x="328" y="255" type="line"/>
      <point x="419" y="372" type="line" smooth="yes"/>
      <point x="452" y="414"/>
      <point x="454" y="415"/>
      <point x="495" y="415" type="curve" smooth="yes"/>
      <point x="525" y="415" type="line"/>
      <point x="525" y="450" type="line"/>
      <point x="319" y="450" type="line"/>
      <point x="319" y="415" type="line"/>
      <point x="347" y="415" type="line" smooth="yes"/>
      <point x="360" y="415"/>
      <point x="367" y="412"/>
      <point x="367" y="401" type="curve" smooth="yes"/>
      <point x="367" y="392"/>
      <point x="363" y="383"/>
      <point x="355" y="372" type="curve" smooth="yes"/>
      <point x="301" y="303" type="line"/>
      <point x="248" y="381" type="line" smooth="yes"/>
      <point x="243" y="389"/>
      <point x="240" y="396"/>
      <point x="240" y="404" type="curve" smooth="yes"/>
      <point x="240" y="414"/>
      <point x="246" y="415"/>
      <point x="255" y="415" type="curve" smooth="yes"/>
      <point x="271" y="415" type="line"/>
    </contour>
  </outline>
</glyph>
<glyph name="exclamdown" format="2">
  <advance width="268"/>
  <unicode hex="00A1"/>
  <outline>
    <contour>
      <point x="179" y="625" type="curve" smooth="yes"/>
      <point x="179" y="659"/>
      <point x="145" y="687"/>
      <point x="102" y="687" type="curve" smooth="yes"/>
      <point x="59" y="687"/>
      <point x="25" y="659"/>
      <point x="25" y="625" type="curve" smooth="yes"/>
      <point x="25" y="591"/>
      <point x="59" y="563"/>
      <point x="102" y="563" type="curve" smooth="yes"/>
      <point x="145" y="563"/>
      <point x="179" y="591"/>
    </contour>
    <contour>
      <point x="69" y="464" type="line"/>
      <point x="69" y="336" name="hr01"/>
      <point x="52" y="225"/>
      <point x="26" y="100" type="curve" smooth="yes"/>
      <point x="23" y="85"/>
      <point x="21" y="72"/>
      <point x="21" y="60" type="curve" smooth="yes"/>
      <point x="21" y="15"/>
      <point x="50" y="-12"/>
      <point x="102" y="-12" type="curve" smooth="yes"/>
      <point x="154" y="-12"/>
      <point x="183" y="15"/>
      <point x="183" y="60" type="curve" smooth="yes"/>
      <point x="183" y="72"/>
      <point x="181" y="85"/>
      <point x="178" y="100" type="curve" smooth="yes"/>
      <point x="152" y="225"/>
      <point x="135" y="336"/>
      <point x="135" y="464" type="curve"/>
    </contour>
  </outline>
</glyph>
<glyph name="logicalnot" format="2">
  <advance width="594"/>
  <unicode hex="00AC"/>
  <outline>
    <contour>
      <point x="483" y="140" type="line"/>
      <point x="483" y="353" type="line"/>
      <point x="41" y="353" type="line"/>
      <point x="41" y="419" type="line"/>
      <point x="553" y="419" type="line"/>
      <point x="553" y="140" type="line"/>
    </contour>
  </outline>
</glyph>
<glyph name="threesuperior" format="2">
  <advance width="397"/>
  <unicode hex="00B3"/>
  <outline>
    <contour>
      <point x="177" y="281" type="curve" smooth="yes"/>
      <point x="97" y="281"/>
      <point x="37" y="318"/>
      <point x="37" y="372" type="curve" smooth="yes"/>
      <point x="37" y="410"/>
      <point x="66" y="440"/>
      <point x="108" y="440" type="curve" smooth="yes"/>
      <point x="138" y="440"/>
      <point x="159" y="424" name="hr01"/>
      <point x="159" y="400" type="curve" smooth="yes"/>
      <point x="159" y="381"/>
      <point x="148" y="368"/>
      <point x="129" y="360" type="curve" smooth="yes"/>
      <point x="118" y="355"/>
      <point x="109" y="348" name="hr02"/>
      <point x="109" y="337" type="curve" smooth="yes"/>
      <point x="109" y="319"/>
      <point x="133" y="305"/>
      <point x="168" y="305" type="curve" smooth="yes"/>
      <point x="222" y="305"/>
      <point x="246" y="339"/>
      <point x="246" y="404" type="curve" smooth="yes"/>
      <point x="246" y="476"/>
      <point x="217" y="507"/>
      <point x="178" y="507" type="curve" smooth="yes"/>
      <point x="110" y="507" type="line"/>
      <point x="110" y="536" type="line"/>
      <point x="176" y="536" type="line" smooth="yes"/>
      <point x="219" y="536"/>
      <point x="238" y="563" name="hr03"/>
      <point x="238" y="628" type="curve" smooth="yes"/>
      <point x="238" y="695"/>
      <point x="218" y="717"/>
      <point x="181" y="717" type="curve" smooth="yes"/>
      <point x="146" y="717"/>
      <point x="117" y="698"/>
      <point x="117" y="675" type="curve" smooth="yes"/>
      <point x="117" y="662"/>
      <point x="126" y="651"/>
      <point x="137" y="646" type="curve"/>
      <point x="153" y="637"/>
      <point x="161" y="625"/>
      <point x="161" y="612" type="curve" smooth="yes"/>
      <point x="161" y="591"/>
      <point x="142" y="574"/>
      <point x="115" y="574" type="curve" smooth="yes"/>
      <point x="80" y="574"/>
      <point x="51" y="602"/>
      <point x="51" y="644" type="curve" smooth="yes"/>
      <point x="51" y="714"/>
      <point x="133" y="741"/>
      <point x="200" y="741" type="curve" smooth="yes"/>
      <point x="283" y="741"/>
      <point x="348" y="699"/>
      <point x="348" y="632" type="curve" smooth="yes"/>
      <point x="348" y="572"/>
      <point x="295" y="539"/>
      <point x="227" y="526" type="curve"/>
      <point x="227" y="519" type="line"/>
      <point x="291" y="514"/>
      <point x="365" y="477" name="hr04"/>
      <point x="365" y="401" type="curve" smooth="yes"/>
      <point x="365" y="325"/>
      <point x="290" y="281"/>
    </contour>
  </outline>
</glyph>
<glyph name="onesuperior" format="2">
  <advance width="312"/>
  <unicode hex="00B9"/>
  <outline>
    <contour>
      <point x="143" y="730" type="line"/>
      <point x="45" y="596" type="line"/>
      <point x="70" y="577" type="line"/>
      <point x="134" y="650" type="line"/>
      <point x="134" y="382" type="line" smooth="yes"/>
      <point x="134" y="362"/>
      <point x="128" y="353"/>
      <point x="114" y="353" type="curve" smooth="yes"/>
      <point x="76" y="353" type="line"/>
      <point x="76" y="332" type="line"/>
      <point x="273" y="332" type="line"/>
      <point x="273" y="353" type="line"/>
      <point x="235" y="353" type="line" smooth="yes"/>
      <point x="221" y="353"/>
      <point x="214" y="362"/>
      <point x="214" y="382" type="curve" smooth="yes"/>
      <point x="214" y="730" type="line"/>
    </contour>
  </outline>
</glyph>
<glyph name="Aring" format="2">
  <advance width="724"/>
  <unicode hex="00C5"/>
  <outline>
    <contour>
      <point x="322" y="795" type="curve" smooth="yes"/>
      <point x="322" y="837"/>
      <point x="348" y="866"/>
      <point x="378" y="866" type="curve" smooth="yes"/>
      <point x="411" y="866"/>
      <point x="434" y="834"/>
      <point x="434" y="795" type="curve" smooth="yes"/>
      <point x="434" y="753"/>
      <point x="408" y="724"/>
      <point x="378" y="724" type="curve" smooth="yes"/>
      <point x="345" y="724"/>
      <point x="322" y="756"/>
    </contour>
    <contour>
      <point x="255" y="795" type="curve" smooth="yes"/>
      <point x="255" y="737" name="hr01"/>
      <point x="307" y="686"/>
      <point x="378" y="686" type="curve" smooth="yes"/>
      <point x="445" y="686"/>
      <point x="501" y="733"/>
      <point x="501" y="795" type="curve" smooth="yes"/>
      <point x="501" y="853"/>
      <point x="449" y="901"/>
      <point x="378" y="901" type="curve" smooth="yes"/>
      <point x="311" y="901"/>
      <point x="255" y="857"/>
    </contour>
    <contour>
      <point x="275" y="35" type="line"/>
      <point x="220" y="35" type="line" smooth="yes"/>
      <point x="192" y="35"/>
      <point x="177" y="38"/>
      <point x="177" y="62" type="curve" smooth="yes"/>
      <point x="177" y="73"/>
      <point x="180" y="86"/>
      <point x="187" y="101" type="curve"/>
      <point x="231" y="216" type="line"/>
      <point x="449" y="216" type="line"/>
      <point x="487" y="110" type="line" smooth="yes"/>
      <point x="493" y="94"/>
      <point x="496" y="80"/>
      <point x="496" y="67" type="curve" smooth="yes"/>
      <point x="496" y="40"/>
      <point x="481" y="35"/>
      <point x="456" y="35" type="curve" smooth="yes"/>
      <point x="409" y="35" type="line"/>
      <point x="409" y="0" type="line"/>
      <point x="727" y="0" type="line"/>
      <point x="727" y="35" type="line"/>
      <point x="688" y="35" type="line" smooth="yes"/>
      <point x="652" y="35"/>
      <point x="646" y="37"/>
      <point x="621" y="106" type="curve" smooth="yes"/>
      <point x="411" y="693" type="line"/>
      <point x="345" y="693" type="line"/>
      <point x="113" y="96" type="line" smooth="yes"/>
      <point x="90" y="37"/>
      <point x="79" y="35"/>
      <point x="42" y="35" type="curve" smooth="yes"/>
      <point x="-5" y="35" type="line"/>
      <point x="-5" y="0" type="line"/>
      <point x="275" y="0" type="line"/>
    </contour>
    <contour>
      <point x="245" y="252" type="line"/>
      <point x="346" y="517" type="line"/>
      <point x="437" y="252" type="line"/>
      <point x="452" y="252" type="line"/>
    </contour>
  </outline>
</glyph>
<glyph name="Egrave" format="2">
  <advance width="673"/>
  <unicode hex="00C8"/>
  <outline>
    <contour>
      <point x="386" y="906" type="curve"/>
      <point x="245" y="906" type="line"/>
      <point x="239" y="889" type="line"/>
      <point x="280" y="849"/>
      <point x="398" y="761"/>
      <point x="467" y="722" type="curve"/>
      <point x="478" y="751" type="line"/>
      <point x="446" y="790"/>
      <point x="404" y="859"/>
    </contour>
    <contour>
      <point x="43" y="680" type="line"/>
      <point x="43" y="645" type="line"/>
      <point x="98" y="645" type="line" smooth="yes"/>
      <point x="129" y="645"/>
      <point x="133" y="640"/>
      <point x="133" y="595" type="curve" smooth="yes"/>
      <point x="133" y="85" type="line" smooth="yes"/>
      <point x="133" y="40"/>
      <point x="129" y="35"/>
      <point x="98" y="35" type="curve" smooth="yes"/>
      <point x="43" y="35" type="line"/>
      <point x="43" y="0" type="line"/>
      <point x="617" y="0" type="line"/>
      <point x="617" y="269" type="line"/>
      <point x="559" y="269" type="line"/>
      <point x="526" y="90"/>
      <point x="482" y="36"/>
      <point x="368" y="36" type="curve" smooth="yes"/>
      <point x="294" y="36" type="line" smooth="yes"/>
      <point x="276" y="36"/>
      <point x="258" y="55"/>
      <point x="258" y="79" type="curve" smooth="yes"/>
      <point x="258" y="326" type="line"/>
      <point x="306" y="326" type="line" smooth="yes"/>
      <point x="352" y="326"/>
      <point x="382" y="270"/>
      <point x="390" y="180" type="curve"/>
      <point x="455" y="180" type="line"/>
      <point x="455" y="507" type="line"/>
      <point x="390" y="507" type="line"/>
      <point x="382" y="417"/>
      <point x="355" y="362"/>
      <point x="306" y="362" type="curve" smooth="yes"/>
      <point x="258" y="362" type="line"/>
      <point x="258" y="604" type="line" smooth="yes"/>
      <point x="258" y="628"/>
      <point x="285" y="644"/>
      <point x="308" y="644" type="curve" smooth="yes"/>
      <point x="371" y="644" type="line" smooth="yes"/>
      <point x="479" y="644"/>
      <point x="515" y="576"/>
      <point x="542" y="449" type="curve"/>
      <point x="600" y="449" type="line"/>
      <point x="600" y="680" type="line"/>
    </contour>
  </outline>
</glyph>
<glyph name="Eacute" format="2">
  <advance width="673"/>
  <unicode hex="00C9"/>
  <outline>
    <contour>
      <point x="332" y="906" type="line"/>
      <point x="314" y="859"/>
      <point x="272" y="790"/>
      <point x="240" y="751" type="curve"/>
      <point x="251" y="722" type="line"/>
      <point x="320" y="761"/>
      <point x="438" y="849"/>
      <point x="479" y="889" type="curve"/>
      <point x="473" y="906" type="line"/>
    </contour>
    <contour>
      <point x="43" y="680" type="line"/>
      <point x="43" y="645" type="line"/>
      <point x="98" y="645" type="line" smooth="yes"/>
      <point x="129" y="645"/>
      <point x="133" y="640"/>
      <point x="133" y="595" type="curve" smooth="yes"/>
      <point x="133" y="85" type="line" smooth="yes"/>
      <point x="133" y="40"/>
      <point x="129" y="35"/>
      <point x="98" y="35" type="curve" smooth="yes"/>
      <point x="43" y="35" type="line"/>
      <point x="43" y="0" type="line"/>
      <point x="617" y="0" type="line"/>
      <point x="617" y="269" type="line"/>
      <point x="559" y="269" type="line"/>
      <point x="526" y="90"/>
      <point x="482" y="36"/>
      <point x="368" y="36" type="curve" smooth="yes"/>
      <point x="294" y="36" type="line" smooth="yes"/>
      <point x="276" y="36"/>
      <point x="258" y="55"/>
      <point x="258" y="79" type="curve" smooth="yes"/>
      <point x="258" y="326" type="line"/>
      <point x="306" y="326" type="line" smooth="yes"/>
      <point x="352" y="326"/>
      <point x="382" y="270"/>
      <point x="390" y="180" type="curve"/>
      <point x="455" y="180" type="line"/>
      <point x="455" y="507" type="line"/>
      <point x="390" y="507" type="line"/>
      <point x="382" y="417"/>
      <point x="355" y="362"/>
      <point x="306" y="362" type="curve" smooth="yes"/>
      <point x="258" y="362" type="line"/>
      <point x="258" y="604" type="line" smooth="yes"/>
      <point x="258" y="628"/>
      <point x="285" y="644"/>
      <point x="308" y="644" type="curve" smooth="yes"/>
      <point x="371" y="644" type="line" smooth="yes"/>
      <point x="479" y="644"/>
      <point x="515" y="576"/>
      <point x="542" y="449" type="curve" name="hr01"/>
      <point x="600" y="449" type="line"/>
      <point x="600" y="680" type="line"/>
    </contour>
  </outline>
</glyph>
<glyph name="multiply" format="2">
  <advance width="618"/>
  <unicode hex="00D7"/>
  <outline>
    <contour>
      <point x="308" y="296" type="line"/>
      <point x="122" y="482" type="line"/>
      <point x="76" y="436" type="line"/>
      <point x="262" y="250" type="line"/>
      <point x="76" y="64" type="line"/>
      <point x="122" y="18" type="line"/>
      <point x="308" y="204" type="line"/>
      <point x="494" y="18" type="line"/>
      <point x="540" y="64" type="line"/>
      <point x="354" y="250" type="line"/>
      <point x="540" y="436" type="line"/>
      <point x="494" y="482" type="line"/>
    </contour>
  </outline>
</glyph>
<glyph name="egrave" format="2">
  <advance width="499"/>
  <unicode hex="00E8"/>
  <outline>
    <contour>
      <point x="289" y="706" type="curve"/>
      <point x="148" y="706" type="line"/>
      <point x="142" y="689" type="line"/>
      <point x="183" y="649"/>
      <point x="301" y="561"/>
      <point x="371" y="522" type="curve"/>
      <point x="382" y="551" type="line"/>
      <point x="349" y="590"/>
      <point x="308" y="659"/>
    </contour>
    <contour>
      <point x="171" y="237" type="line"/>
      <point x="156" y="237" type="line"/>
      <point x="463" y="237" type="line"/>
      <point x="463" y="251" type="line" smooth="yes"/>
      <point x="463" y="351"/>
      <point x="401" y="462"/>
      <point x="260" y="462" type="curve" smooth="yes"/>
      <point x="121" y="462"/>
      <point x="33" y="355"/>
      <point x="33" y="225" type="curve" smooth="yes"/>
      <point x="33" y="95"/>
      <point x="120" y="-12"/>
      <point x="251" y="-12" type="curve" smooth="yes"/>
      <point x="345" y="-12"/>
      <point x="430" y="43"/>
      <point x="458" y="130" type="curve"/>
      <point x="399" y="150" type="line"/>
      <point x="371" y="66"/>
      <point x="315" y="25"/>
      <point x="269" y="25" type="curve" smooth="yes"/>
      <point x="218" y="25"/>
      <point x="171" y="75"/>
      <point x="171" y="224" type="curve" smooth="yes"/>
    </contour>
    <contour>
      <point x="329" y="315" type="curve" smooth="yes"/>
      <point x="329" y="275"/>
      <point x="319" y="267"/>
      <point x="296" y="267" type="curve" smooth="yes"/>
      <point x="171" y="267" type="line"/>
      <point x="181" y="380"/>
      <point x="214" y="436"/>
      <point x="258" y="436" type="curve" smooth="yes"/>
      <point x="302" y="436"/>
      <point x="329" y="380"/>
    </contour>
  </outline>
</glyph>
<glyph name="edieresis" format="2">
  <advance width="499"/>
  <unicode hex="00EB"/>
  <outline>
    <contour>
      <point x="292" y="588" type="curve" smooth="yes"/>
      <point x="292" y="559"/>
      <point x="321" y="536"/>
      <point x="359" y="536" type="curve" smooth="yes"/>
      <point x="397" y="536"/>
      <point x="426" y="559"/>
      <point x="426" y="588" type="curve" smooth="yes"/>
      <point x="426" y="617"/>
      <point x="397" y="640"/>
      <point x="359" y="640" type="curve" smooth="yes"/>
      <point x="321" y="640"/>
      <point x="292" y="617"/>
    </contour>
    <contour>
      <point x="98" y="588" type="curve" smooth="yes"/>
      <point x="98" y="559"/>
      <point x="127" y="536"/>
      <point x="165" y="536" type="curve" smooth="yes"/>
      <point x="203" y="536"/>
      <point x="232" y="559"/>
      <point x="232" y="588" type="curve" smooth="yes"/>
      <point x="232" y="617"/>
      <point x="203" y="640"/>
      <point x="165" y="640" type="curve" smooth="yes"/>
      <point x="127" y="640"/>
      <point x="98" y="617"/>
    </contour>
    <contour>
      <point x="171" y="237" type="line"/>
      <point x="156" y="237" type="line"/>
      <point x="463" y="237" type="line" name="hr01"/>
      <point x="463" y="251" type="line" smooth="yes"/>
      <point x="463" y="351"/>
      <point x="401" y="462"/>
      <point x="260" y="462" type="curve" smooth="yes"/>
      <point x="121" y="462"/>
      <point x="33" y="355"/>
      <point x="33" y="225" type="curve" smooth="yes"/>
      <point x="33" y="95"/>
      <point x="120" y="-12"/>
      <point x="251" y="-12" type="curve" smooth="yes"/>
      <point x="345" y="-12"/>
      <point x="430" y="43"/>
      <point x="458" y="130" type="curve"/>
      <point x="399" y="150" type="line"/>
      <point x="371" y="66"/>
      <point x="315" y="25"/>
      <point x="269" y="25" type="curve" smooth="yes"/>
      <point x="218" y="25"/>
      <point x="171" y="75"/>
      <point x="171" y="224" type="curve" smooth="yes"/>
    </contour>
    <contour>
      <point x="329" y="315" type="curve" smooth="yes"/>
      <point x="329" y="275"/>
      <point x="319" y="267"/>
      <point x="296" y="267" type="curve" smooth="yes"/>
      <point x="171" y="267" type="line"/>
      <point x="181" y="380"/>
      <point x="214" y="436"/>
      <point x="258" y="436" type="curve" smooth="yes"/>
      <point x="302" y="436"/>
      <point x="329" y="380"/>
    </contour>
  </outline>
</glyph>
<glyph name="eth" format="2">
  <advance width="522"/>
  <unicode hex="00F0"/>
  <outline>
    <contour>
      <point x="264" y="-12" type="curve" smooth="yes"/>
      <point x="130" y="-12"/>
      <point x="49" y="115"/>
      <point x="49" y="241" type="curve" smooth="yes"/>
      <point x="49" y="358"/>
      <point x="119" y="498"/>
      <point x="248" y="498" type="curve" smooth="yes"/>
      <point x="263" y="498"/>
      <point x="276" y="496"/>
      <point x="289" y="493" type="curve"/>
      <point x="294" y="498" type="line"/>
      <point x="275" y="531"/>
      <point x="253" y="564"/>
      <point x="227" y="599" type="curve"/>
      <point x="131" y="543" type="line"/>
      <point x="117" y="567" type="line"/>
      <point x="210" y="623" type="line"/>
      <point x="181" y="659"/>
      <point x="154" y="689"/>
      <point x="130" y="712" type="curve"/>
      <point x="130" y="729" type="line" name="hr01"/>
      <point x="253" y="729" type="line"/>
      <point x="301" y="676" type="line"/>
      <point x="399" y="733" type="line"/>
      <point x="414" y="709" type="line"/>
      <point x="319" y="653" type="line"/>
      <point x="417" y="527"/>
      <point x="473" y="414"/>
      <point x="473" y="249" type="curve" smooth="yes"/>
      <point x="473" y="79"/>
      <point x="378" y="-12"/>
    </contour>
    <contour>
      <point x="261" y="13" type="curve" smooth="yes"/>
      <point x="314" y="13"/>
      <point x="342" y="79"/>
      <point x="342" y="243" type="curve" smooth="yes"/>
      <point x="342" y="407"/>
      <point x="314" y="473"/>
      <point x="261" y="473" type="curve" smooth="yes"/>
      <point x="208" y="473"/>
      <point x="180" y="407"/>
      <point x="180" y="243" type="curve" smooth="yes"/>
      <point x="180" y="79"/>
      <point x="208" y="13"/>
    </contour>
  </outline>
</glyph>
<glyph name="otilde" format="2">
  <advance width="518"/>
  <unicode hex="00F5"/>
  <outline>
    <contour>
      <point x="179" y="608" type="curve" smooth="yes"/>
      <point x="188" y="608"/>
      <point x="205" y="598"/>
      <point x="219" y="589" type="curve" smooth="yes"/>
      <point x="229" y="583" type="line" smooth="yes"/>
      <point x="231" y="582"/>
      <point x="232" y="581"/>
      <point x="238" y="577" type="curve" smooth="yes"/>
      <point x="258" y="564"/>
      <point x="287" y="546"/>
      <point x="322" y="546" type="curve" smooth="yes"/>
      <point x="384" y="546"/>
      <point x="421" y="600"/>
      <point x="436" y="641" type="curve"/>
      <point x="389" y="658" type="line"/>
      <point x="376" y="630"/>
      <point x="360" y="604"/>
      <point x="345" y="604" type="curve" smooth="yes"/>
      <point x="337" y="604"/>
      <point x="320" y="614"/>
      <point x="304" y="624" type="curve" smooth="yes"/>
      <point x="302" y="625"/>
      <point x="300" y="627"/>
      <point x="298" y="628" type="curve" smooth="yes"/>
      <point x="264" y="650"/>
      <point x="236" y="666"/>
      <point x="203" y="666" type="curve" smooth="yes"/>
      <point x="141" y="666"/>
      <point x="104" y="612"/>
      <point x="89" y="571" type="curve"/>
      <point x="136" y="554" type="line"/>
      <point x="149" y="582"/>
      <point x="165" y="608"/>
    </contour>
    <contour>
      <point x="171" y="225" type="curve" smooth="yes"/>
      <point x="171" y="375"/>
      <point x="206" y="436"/>
      <point x="260" y="436" type="curve" smooth="yes"/>
      <point x="314" y="436"/>
      <point x="349" y="375"/>
      <point x="349" y="225" type="curve" smooth="yes"/>
      <point x="349" y="75"/>
      <point x="314" y="14"/>
      <point x="260" y="14" type="curve" smooth="yes"/>
      <point x="206" y="14"/>
      <point x="171" y="75"/>
    </contour>
    <contour>
      <point x="33" y="225" type="curve" smooth="yes"/>
      <point x="33" y="95"/>
      <point x="121" y="-12"/>
      <point x="260" y="-12" type="curve" smooth="yes"/>
      <point x="399" y="-12"/>
      <point x="487" y="95"/>
      <point x="487" y="225" type="curve" smooth="yes"/>
      <point x="487" y="355"/>
      <point x="399" y="462"/>
      <point x="260" y="462" type="curve" smooth="yes"/>
      <point x="121" y="462"/>
      <point x="33" y="355"/>
    </contour>
  </outline>
</glyph>
<glyph name="uacute" format="2">
  <advance width="582"/>
  <unicode hex="00FA"/>
  <outline>
    <contour>
      <point x="263" y="706" type="line"/>
      <point x="244" y="659"/>
      <point x="203" y="590"/>
      <point x="170" y="551" type="curve"/>
      <point x="181" y="522" type="line"/>
      <point x="251" y="561"/>
      <point x="369" y="649"/>
      <point x="410" y="689" type="curve"/>
      <point x="404" y="706" type="line"/>
    </contour>
    <contour>
      <point x="396" y="96" type="curve"/>
      <point x="381" y="96" type="line"/>
      <point x="390" y="96" type="line"/>
      <point x="375" y="96" type="line"/>
      <point x="375" y="0" type="line"/>
      <point x="555" y="0" type="line"/>
      <point x="555" y="35" type="line"/>
      <point x="520" y="35" type="line" smooth="yes"/>
      <point x="489" y="35"/>
      <point x="485" y="42"/>
      <point x="485" y="87" type="curve" smooth="yes"/>
      <point x="485" y="450" type="line"/>
      <point x="289" y="450" type="line"/>
      <point x="289" y="415" type="line"/>
      <point x="334" y="415" type="line" smooth="yes"/>
      <point x="365" y="415"/>
      <point x="369" y="410" name="hr02"/>
      <point x="369" y="365" type="curve" smooth="yes"/>
      <point x="369" y="214" type="line" smooth="yes"/>
      <point x="369" y="154"/>
      <point x="336" y="32"/>
      <point x="260" y="32" type="curve" smooth="yes"/>
      <point x="219" y="32"/>
      <point x="203" y="68"/>
      <point x="203" y="175" type="curve" smooth="yes"/>
      <point x="203" y="450" type="line"/>
      <point x="13" y="450" type="line"/>
      <point x="13" y="415" type="line"/>
      <point x="48" y="415" type="line" smooth="yes"/>
      <point x="79" y="415"/>
      <point x="83" y="412"/>
      <point x="83" y="367" type="curve" smooth="yes"/>
      <point x="83" y="171" type="line" smooth="yes"/>
      <point x="83" y="67"/>
      <point x="116" y="-12"/>
      <point x="230" y="-12" type="curve" smooth="yes"/>
      <point x="318" y="-12"/>
      <point x="371" y="36"/>
    </contour>
  </outline>
</glyph>
<glyph name="longs" format="2">
  <advance width="449"/>
  <unicode hex="017F"/>
  <outline>
    <contour>
      <point x="369" y="643" type="curve" smooth="yes"/>
      <point x="369" y="631"/>
      <point x="365" y="626"/>
      <point x="361" y="620" type="curve" smooth="yes"/>
      <point x="353" y="608"/>
      <point x="343" y="594"/>
      <point x="343" y="583" type="curve" smooth="yes"/>
      <point x="343" y="547"/>
      <point x="382" y="527"/>
      <point x="414" y="527" type="curve" smooth="yes"/>
      <point x="462" y="527"/>
      <point x="483" y="555"/>
      <point x="483" y="583" type="curve" smooth="yes"/>
      <point x="483" y="668"/>
      <point x="378" y="710"/>
      <point x="297" y="710" type="curve" smooth="yes"/>
      <point x="169" y="710"/>
      <point x="83" y="626"/>
      <point x="83" y="510" type="curve" smooth="yes"/>
      <point x="83" y="85" type="line" smooth="yes"/>
      <point x="83" y="40"/>
      <point x="80" y="35"/>
      <point x="49" y="35" type="curve" smooth="yes"/>
      <point x="3" y="35" type="line"/>
      <point x="3" y="0" type="line"/>
      <point x="280" y="0" type="line"/>
      <point x="280" y="35" type="line"/>
      <point x="239" y="35" type="line" smooth="yes"/>
      <point x="208" y="35"/>
      <point x="205" y="40"/>
      <point x="205" y="85" type="curve" smooth="yes"/>
      <point x="205" y="545" type="line" smooth="yes"/>
      <point x="205" y="634"/>
      <point x="243" y="681"/>
      <point x="303" y="681" type="curve" smooth="yes"/>
      <point x="341" y="681"/>
      <point x="369" y="662"/>
    </contour>
  </outline>
</glyph>
<glyph name="florin" format="2">
  <advance width="594"/>
  <unicode hex="0192"/>
  <outline>
    <contour>
      <point x="4" y="-244" type="curve" smooth="yes"/>
      <point x="-53" y="-244"/>
      <point x="-90" y="-206"/>
      <point x="-90" y="-170" type="curve" smooth="yes"/>
      <point x="-90" y="-133"/>
      <point x="-59" y="-106"/>
      <point x="-22" y="-106" type="curve" smooth="yes"/>
      <point x="12" y="-106" name="hr01"/>
      <point x="28" y="-120"/>
      <point x="28" y="-140" type="curve" smooth="yes"/>
      <point x="28" y="-151"/>
      <point x="20" y="-162"/>
      <point x="10" y="-169" type="curve" smooth="yes"/>
      <point x="1" y="-174"/>
      <point x="-4" y="-183"/>
      <point x="-4" y="-196" type="curve" smooth="yes"/>
      <point x="-4" y="-209"/>
      <point x="1" y="-219" name="hr02"/>
      <point x="8" y="-219" type="curve" smooth="yes"/>
      <point x="25" y="-219"/>
      <point x="45" y="-207"/>
      <point x="68" y="-184" type="curve"/>
      <point x="67" y="-184" type="line"/>
      <point x="86" y="-164"/>
      <point x="104" y="-117"/>
      <point x="124" y="-43" type="curve" smooth="yes"/>
      <point x="255" y="438" type="line"/>
      <point x="151" y="438" type="line"/>
      <point x="157" y="467" type="line"/>
      <point x="265" y="467" type="line"/>
      <point x="265" y="469"/>
      <point x="268" y="478"/>
      <point x="269" y="480" type="curve" smooth="yes"/>
      <point x="304" y="595"/>
      <point x="358" y="719"/>
      <point x="500" y="719" type="curve" smooth="yes"/>
      <point x="557" y="719"/>
      <point x="594" y="681"/>
      <point x="594" y="645" type="curve" smooth="yes"/>
      <point x="594" y="608"/>
      <point x="563" y="582"/>
      <point x="525" y="582" type="curve" smooth="yes"/>
      <point x="494" y="582"/>
      <point x="476" y="595"/>
      <point x="476" y="615" type="curve" smooth="yes"/>
      <point x="476" y="626"/>
      <point x="484" y="637"/>
      <point x="494" y="644" type="curve" smooth="yes"/>
      <point x="503" y="649"/>
      <point x="508" y="658"/>
      <point x="508" y="671" type="curve" smooth="yes"/>
      <point x="508" y="684"/>
      <point x="503" y="694" name="hr03"/>
      <point x="496" y="694" type="curve" smooth="yes"/>
      <point x="479" y="694"/>
      <point x="460" y="682"/>
      <point x="438" y="659" type="curve" smooth="yes"/>
      <point x="419" y="640"/>
      <point x="399" y="593"/>
      <point x="379" y="518" type="curve"/>
      <point x="364" y="467" type="line"/>
      <point x="480" y="467" type="line"/>
      <point x="474" y="438" type="line"/>
      <point x="341" y="438" type="line"/>
      <point x="357" y="438" type="line"/>
      <point x="316" y="290"/>
      <point x="276" y="143"/>
      <point x="236" y="-5" type="curve" smooth="yes"/>
      <point x="203" y="-119"/>
      <point x="142" y="-244"/>
    </contour>
  </outline>
</glyph>
<glyph name="ellipsis" format="2">
  <advance width="1000"/>
  <unicode hex="2026"/>
  <outline>
    <contour>
      <point x="734" y="59" type="curve" smooth="yes"/>
      <point x="734" y="20"/>
      <point x="772" y="-12"/>
      <point x="820" y="-12" type="curve" smooth="yes"/>
      <point x="868" y="-12"/>
      <point x="906" y="20"/>
      <point x="906" y="59" type="curve" smooth="yes"/>
      <point x="906" y="98"/>
      <point x="868" y="130"/>
      <point x="820" y="130" type="curve" smooth="yes"/>
      <point x="772" y="130"/>
      <point x="734" y="98"/>
    </contour>
    <contour>
      <point x="434" y="59" type="curve" smooth="yes"/>
      <point x="434" y="20"/>
      <point x="472" y="-12"/>
      <point x="520" y="-12" type="curve" smooth="yes"/>
      <point x="568" y="-12"/>
      <point x="606" y="20"/>
      <point x="606" y="59" type="curve" smooth="yes"/>
      <point x="606" y="98"/>
      <point x="568" y="130"/>
      <point x="520" y="130" type="curve" smooth="yes"/>
      <point x="472" y="130"/>
      <point x="434" y="98"/>
    </contour>
    <contour>
      <point x="134" y="59" type="curve" smooth="yes"/>
      <point x="134" y="20"/>
      <point x="172" y="-12"/>
      <point x="220" y="-12" type="curve" smooth="yes"/>
      <point x="268" y="-12"/>
      <point x="306" y="20"/>
      <point x="306" y="59" type="curve" smooth="yes"/>
      <point x="306" y="98"/>
      <point x="268" y="130"/>
      <point x="220" y="130" type="curve" smooth="yes"/>
      <point x="172" y="130"/>
      <point x="134" y="98"/>
    </contour>
  </outline>
</glyph>
<glyph name="exclamdbl" format="2">
  <advance width="528"/>
  <unicode hex="203C"/>
  <outline>
    <contour>
      <point x="289" y="55" type="curve" smooth="yes"/>
      <point x="289" y="21"/>
      <point x="323" y="-7"/>
      <point x="366" y="-7" type="curve" smooth="yes"/>
      <point x="409" y="-7"/>
      <point x="443" y="21"/>
      <point x="443" y="55" type="curve" smooth="yes"/>
      <point x="443" y="89"/>
      <point x="409" y="117"/>
      <point x="366" y="117" type="curve" smooth="yes"/>
      <point x="323" y="117"/>
      <point x="289" y="89"/>
    </contour>
    <contour>
      <point x="399" y="216" type="line"/>
      <point x="399" y="344" name="hr01"/>
      <point x="416" y="455"/>
      <point x="442" y="580" type="curve" smooth="yes"/>
      <point x="445" y="595"/>
      <point x="447" y="608"/>
      <point x="447" y="620" type="curve" smooth="yes"/>
      <point x="447" y="665"/>
      <point x="418" y="692"/>
      <point x="366" y="692" type="curve" smooth="yes"/>
      <point x="314" y="692"/>
      <point x="285" y="665"/>
      <point x="285" y="620" type="curve" smooth="yes"/>
      <point x="285" y="608"/>
      <point x="287" y="595"/>
      <point x="290" y="580" type="curve" smooth="yes"/>
      <point x="316" y="455"/>
      <point x="333" y="344"/>
      <point x="333" y="216" type="curve"/>
    </contour>
    <contour>
      <point x="89" y="55" type="curve" smooth="yes"/>
      <point x="89" y="21"/>
      <point x="123" y="-7"/>
      <point x="166" y="-7" type="curve" smooth="yes"/>
      <point x="209" y="-7"/>
      <point x="243" y="21"/>
      <point x="243" y="55" type="curve" smooth="yes"/>
      <point x="243" y="89"/>
      <point x="209" y="117"/>
      <point x="166" y="117" type="curve" smooth="yes"/>
      <point x="123" y="117"/>
      <point x="89" y="89"/>
    </contour>
    <contour>
      <point x="199" y="216" type="line"/>
      <point x="199" y="344"/>
      <point x="216" y="455" name="hr04"/>
      <point x="242" y="580" type="curve" smooth="yes"/>
      <point x="245" y="595"/>
      <point x="247" y="608"/>
      <point x="247" y="620" type="curve" smooth="yes"/>
      <point x="247" y="665" name="hr05"/>
      <point x="218" y="692"/>
      <point x="166" y="692" type="curve" smooth="yes"/>
      <point x="114" y="692"/>
      <point x="85" y="665"/>
      <point x="85" y="620" type="curve" smooth="yes"/>
      <point x="85" y="608"/>
      <point x="87" y="595"/>
      <point x="90" y="580" type="curve" smooth="yes"/>
      <point x="116" y="455"/>
      <point x="133" y="344"/>
      <point x="133" y="216" type="curve"/>
    </contour>
  </outline>
</glyph>
<glyph name="arrowleft" format="2">
  <advance width="1504"/>
  <unicode hex="2190"/>
  <outline>
    <contour>
      <point x="85" y="266" type="line"/>
      <point x="141" y="241" type="line" smooth="yes"/>
      <point x="211" y="210"/>
      <point x="277" y="171"/>
      <point x="352" y="122" type="curve" smooth="yes"/>
      <point x="374" y="108"/>
      <point x="393" y="96"/>
      <point x="410" y="96" type="curve"/>
      <point x="422" y="97" type="line"/>
      <point x="423" y="98" type="line"/>
      <point x="414" y="98" type="line"/>
      <point x="414" y="109"/>
      <point x="413" y="119"/>
      <point x="412" y="122" type="curve"/>
      <point x="409" y="127" type="line"/>
      <point x="409" y="128"/>
      <point x="408" y="129"/>
      <point x="408" y="129" type="curve" smooth="yes"/>
      <point x="408" y="130" type="line" smooth="yes"/>
      <point x="408" y="131"/>
      <point x="408" y="132"/>
      <point x="407" y="133" type="curve" smooth="yes"/>
      <point x="406" y="134"/>
      <point x="406" y="134"/>
      <point x="405" y="136" type="curve" smooth="yes"/>
      <point x="405" y="138" type="line" smooth="yes"/>
      <point x="404" y="140"/>
      <point x="404" y="140"/>
      <point x="403" y="141" type="curve" smooth="yes"/>
      <point x="403" y="142" type="line" smooth="yes"/>
      <point x="394" y="164" type="line" smooth="yes"/>
      <point x="393" y="168"/>
      <point x="391" y="172"/>
      <point x="389" y="176" type="curve" smooth="yes"/>
      <point x="381" y="199" type="line"/>
      <point x="381" y="210"/>
      <point x="384" y="244"/>
      <point x="396" y="244" type="curve" smooth="yes"/>
      <point x="1419" y="244" type="line"/>
      <point x="1419" y="288" type="line"/>
      <point x="397" y="288" type="line" smooth="yes"/>
      <point x="384" y="288"/>
      <point x="381" y="319"/>
      <point x="381" y="331" type="curve"/>
      <point x="411" y="408" type="line"/>
      <point x="423" y="434" type="line"/>
      <point x="422" y="436" type="line"/>
      <point x="410" y="437" type="line"/>
      <point x="393" y="437"/>
      <point x="376" y="426"/>
      <point x="348" y="408" type="curve" smooth="yes"/>
      <point x="279" y="362"/>
      <point x="213" y="323"/>
      <point x="141" y="291" type="curve" smooth="yes"/>
    </contour>
  </outline>
</glyph>
<glyph name="arrowright" format="2">
  <advance width="1504"/>
  <unicode hex="2192"/>
  <outline>
    <contour>
      <point x="1419" y="267" type="line"/>
      <point x="1363" y="292" type="line" smooth="yes"/>
      <point x="1293" y="323"/>
      <point x="1227" y="362"/>
      <point x="1152" y="411" type="curve" smooth="yes"/>
      <point x="1130" y="425"/>
      <point x="1111" y="437"/>
      <point x="1094" y="437" type="curve"/>
      <point x="1082" y="436" type="line"/>
      <point x="1081" y="435" type="line"/>
      <point x="1090" y="435" type="line"/>
      <point x="1090" y="424"/>
      <point x="1091" y="414"/>
      <point x="1092" y="411" type="curve"/>
      <point x="1095" y="406" type="line"/>
      <point x="1096" y="405"/>
      <point x="1096" y="404"/>
      <point x="1096" y="403" type="curve" smooth="yes"/>
      <point x="1096" y="402" type="line" smooth="yes"/>
      <point x="1096" y="402"/>
      <point x="1097" y="401"/>
      <point x="1097" y="400" type="curve" smooth="yes"/>
      <point x="1098" y="399" type="line" smooth="yes"/>
      <point x="1099" y="398"/>
      <point x="1099" y="398"/>
      <point x="1099" y="397" type="curve" smooth="yes"/>
      <point x="1099" y="396" type="line" smooth="yes"/>
      <point x="1100" y="395" type="line" smooth="yes"/>
      <point x="1100" y="394" type="line" smooth="yes"/>
      <point x="1100" y="394"/>
      <point x="1101" y="393"/>
      <point x="1102" y="390" type="curve" smooth="yes"/>
      <point x="1110" y="369" type="line" smooth="yes"/>
      <point x="1111" y="365"/>
      <point x="1113" y="361"/>
      <point x="1115" y="357" type="curve" smooth="yes"/>
      <point x="1123" y="334" type="line"/>
      <point x="1123" y="323"/>
      <point x="1120" y="289"/>
      <point x="1108" y="289" type="curve" smooth="yes"/>
      <point x="85" y="289" type="line"/>
      <point x="85" y="245" type="line"/>
      <point x="1107" y="245" type="line" smooth="yes"/>
      <point x="1120" y="245"/>
      <point x="1123" y="214"/>
      <point x="1123" y="202" type="curve"/>
      <point x="1093" y="125" type="line"/>
      <point x="1081" y="99" type="line"/>
      <point x="1082" y="97" type="line"/>
      <point x="1094" y="96" type="line"/>
      <point x="1111" y="96"/>
      <point x="1128" y="107"/>
      <point x="1156" y="125" type="curve" smooth="yes"/>
      <point x="1225" y="171"/>
      <point x="1291" y="210"/>
      <point x="1363" y="242" type="curve" smooth="yes"/>
    </contour>
  </outline>
</glyph>
<glyph name="minus" format="2">
  <advance width="576"/>
  <unicode hex="2212"/>
  <outline>
    <contour>
      <point x="25" y="275" type="line"/>
      <point x="25" y="225" type="line"/>
      <point x="551" y="225" type="line"/>
      <point x="551" y="275" type="line"/>
    </contour>
  </outline>
</glyph>
<glyph name="musicnatural" format="2">
  <advance width="358"/>
  <unicode hex="266E"/>
  <outline>
    <contour>
      <point x="60" y="720" type="line"/>
      <point x="60" y="102" type="line"/>
      <point x="220" y="146" type="line" smooth="yes"/>
      <point x="221" y="146"/>
      <point x="222" y="147"/>
      <point x="223" y="147" type="curve" smooth="yes"/>
      <point x="227" y="148"/>
      <point x="230" y="148"/>
      <point x="233" y="148" type="curve" smooth="yes"/>
      <point x="247" y="148"/>
      <point x="254" y="139"/>
      <point x="254" y="123" type="curve" smooth="yes"/>
      <point x="254" y="-57" type="line"/>
      <point x="298" y="-57" type="line"/>
      <point x="298" y="549" type="line"/>
      <point x="140" y="505" type="line" smooth="yes"/>
      <point x="136" y="504"/>
      <point x="132" y="503"/>
      <point x="128" y="503" type="curve" smooth="yes"/>
      <point x="116" y="503"/>
      <point x="104" y="510"/>
      <point x="104" y="535" type="curve" smooth="yes"/>
      <point x="104" y="720" type="line"/>
    </contour>
    <contour>
      <point x="94" y="386" type="line"/>
      <point x="232" y="425" type="line" smooth="yes"/>
      <point x="235" y="426"/>
      <point x="239" y="426"/>
      <point x="242" y="426" type="curve" smooth="yes"/>
      <point x="255" y="426"/>
      <point x="264" y="418" name="hr01"/>
      <point x="264" y="402" type="curve" smooth="yes"/>
      <point x="264" y="265" type="line"/>
      <point x="124" y="226" type="line" smooth="yes"/>
      <point x="121" y="225"/>
      <point x="119" y="225"/>
      <point x="116" y="225" type="curve" smooth="yes"/>
      <point x="103" y="225"/>
      <point x="94" y="235"/>
      <point x="94" y="247" type="curve" smooth="yes"/>
    </contour>
  </outline>
</glyph>
